<mxfile host="app.diagrams.net" agent="Mozilla/5.0 (Windows NT 10.0; Win64; x64) AppleWebKit/537.36 (KHTML, like Gecko) Chrome/126.0.0.0 Safari/537.36" version="24.7.5">
  <diagram name="Page-1" id="UOwQIpR7T4vu_t6FznxB">
    <mxGraphModel dx="880" dy="468" grid="1" gridSize="10" guides="1" tooltips="1" connect="1" arrows="1" fold="1" page="1" pageScale="1" pageWidth="850" pageHeight="1100" math="0" shadow="0">
      <root>
        <mxCell id="0" />
        <mxCell id="1" parent="0" />
        <mxCell id="n-UdIjcbDTsLEZm3xPbp-1" value="" style="group" connectable="0" vertex="1" parent="1">
          <mxGeometry x="10" y="10" width="430" height="173" as="geometry" />
        </mxCell>
        <mxCell id="n-UdIjcbDTsLEZm3xPbp-2" value="" style="group;fillColor=#CCE5FF;strokeColor=none;container=0;fontFamily=roboto;fontSource=https%3A%2F%2Ffonts.googleapis.com%2Fcss%3Ffamily%3Droboto;strokeWidth=4;" connectable="0" vertex="1" parent="n-UdIjcbDTsLEZm3xPbp-1">
          <mxGeometry width="430" height="173" as="geometry" />
        </mxCell>
        <mxCell id="n-UdIjcbDTsLEZm3xPbp-3" value="" style="verticalLabelPosition=bottom;outlineConnect=0;align=center;dashed=0;html=1;verticalAlign=top;shape=mxgraph.pid2misc.column;columnType=common;fontSize=22;gradientColor=#A8A8A8;gradientDirection=west;fontColor=#1F497D;container=0;" vertex="1" parent="n-UdIjcbDTsLEZm3xPbp-1">
          <mxGeometry x="10" y="78.03999999999999" width="60" height="80" as="geometry" />
        </mxCell>
        <mxCell id="n-UdIjcbDTsLEZm3xPbp-4" value="FL2" style="text;html=1;strokeColor=none;fillColor=none;align=center;verticalAlign=middle;whiteSpace=wrap;rounded=0;fontSize=16;container=0;" vertex="1" parent="n-UdIjcbDTsLEZm3xPbp-1">
          <mxGeometry x="10" y="51.03999999999999" width="60" height="30" as="geometry" />
        </mxCell>
        <mxCell id="n-UdIjcbDTsLEZm3xPbp-5" value="nivfl2" style="text;html=1;strokeColor=none;fillColor=none;align=center;verticalAlign=middle;whiteSpace=wrap;rounded=0;fontSize=16;container=0;" vertex="1" parent="n-UdIjcbDTsLEZm3xPbp-1">
          <mxGeometry x="11" y="111.03999999999999" width="60" height="30" as="geometry" />
        </mxCell>
        <mxCell id="n-UdIjcbDTsLEZm3xPbp-6" value="" style="rounded=0;whiteSpace=wrap;html=1;fillColor=none;container=0;fontFamily=roboto;fontSource=https%3A%2F%2Ffonts.googleapis.com%2Fcss%3Ffamily%3Droboto;" vertex="1" parent="n-UdIjcbDTsLEZm3xPbp-1">
          <mxGeometry x="98.99999999999977" y="127.60165975103746" width="68.44444444444446" height="22.904564315352697" as="geometry" />
        </mxCell>
        <mxCell id="n-UdIjcbDTsLEZm3xPbp-7" value="" style="whiteSpace=wrap;html=1;fillColor=none;container=0;fontFamily=roboto;fontSource=https%3A%2F%2Ffonts.googleapis.com%2Fcss%3Ffamily%3Droboto;rounded=1;" vertex="1" parent="n-UdIjcbDTsLEZm3xPbp-1">
          <mxGeometry x="98.99999999999977" y="50.56431535269712" width="68.44444444444446" height="114.52282157676349" as="geometry" />
        </mxCell>
        <mxCell id="n-UdIjcbDTsLEZm3xPbp-8" value="BS17" style="text;html=1;strokeColor=none;fillColor=none;align=center;verticalAlign=middle;whiteSpace=wrap;rounded=0;container=0;fontSize=14;fontFamily=roboto;fontSource=https%3A%2F%2Ffonts.googleapis.com%2Fcss%3Ffamily%3Droboto;" vertex="1" parent="n-UdIjcbDTsLEZm3xPbp-1">
          <mxGeometry x="98.99999999999977" y="44" width="68.44444444444446" height="34.356846473029044" as="geometry" />
        </mxCell>
        <mxCell id="n-UdIjcbDTsLEZm3xPbp-9" value="kW" style="whiteSpace=wrap;html=1;strokeColor=none;fontSize=10;container=0;fontFamily=roboto;fontSource=https%3A%2F%2Ffonts.googleapis.com%2Fcss%3Ffamily%3Droboto;" vertex="1" parent="n-UdIjcbDTsLEZm3xPbp-1">
          <mxGeometry x="144.62962962962945" y="127.60165975103746" width="22.81481481481482" height="22.904564315352697" as="geometry" />
        </mxCell>
        <mxCell id="n-UdIjcbDTsLEZm3xPbp-10" value="Puis17" style="whiteSpace=wrap;html=1;strokeColor=none;container=0;fontFamily=roboto;fontSource=https%3A%2F%2Ffonts.googleapis.com%2Fcss%3Ffamily%3Droboto;" vertex="1" parent="n-UdIjcbDTsLEZm3xPbp-1">
          <mxGeometry x="98.99999999999977" y="127.60165975103746" width="45.62962962962964" height="22.904564315352697" as="geometry" />
        </mxCell>
        <mxCell id="n-UdIjcbDTsLEZm3xPbp-11" value="" style="shape=mxgraph.pid.shaping_machines.shaping_machine_(horizontal);html=1;pointerEvents=1;align=center;verticalLabelPosition=bottom;verticalAlign=top;dashed=0;gradientColor=#D0D0D0;gradientDirection=west;container=0;rotation=90;fontFamily=roboto;fontSource=https%3A%2F%2Ffonts.googleapis.com%2Fcss%3Ffamily%3Droboto;" vertex="1" parent="n-UdIjcbDTsLEZm3xPbp-1">
          <mxGeometry x="107.55555555555532" y="84.65560165975126" width="51.333333333333336" height="34.356846473029044" as="geometry" />
        </mxCell>
        <mxCell id="n-UdIjcbDTsLEZm3xPbp-12" value="250kw" style="whiteSpace=wrap;html=1;container=0;fontSize=8;fontFamily=roboto;fontSource=https%3A%2F%2Ffonts.googleapis.com%2Fcss%3Ffamily%3Droboto;" vertex="1" parent="n-UdIjcbDTsLEZm3xPbp-1">
          <mxGeometry x="116.11111111111086" y="86.3734439834027" width="34.22222222222223" height="22.904564315352697" as="geometry" />
        </mxCell>
        <mxCell id="n-UdIjcbDTsLEZm3xPbp-13" value="" style="rounded=0;whiteSpace=wrap;html=1;fillColor=none;container=0;fontFamily=roboto;fontSource=https%3A%2F%2Ffonts.googleapis.com%2Fcss%3Ffamily%3Droboto;" vertex="1" parent="n-UdIjcbDTsLEZm3xPbp-1">
          <mxGeometry x="185.99999999999977" y="128.60165975103746" width="68.44444444444446" height="22.904564315352697" as="geometry" />
        </mxCell>
        <mxCell id="n-UdIjcbDTsLEZm3xPbp-14" value="" style="whiteSpace=wrap;html=1;fillColor=none;container=0;fontFamily=roboto;fontSource=https%3A%2F%2Ffonts.googleapis.com%2Fcss%3Ffamily%3Droboto;rounded=1;" vertex="1" parent="n-UdIjcbDTsLEZm3xPbp-1">
          <mxGeometry x="185.99999999999977" y="51.56431535269712" width="68.44444444444446" height="114.52282157676349" as="geometry" />
        </mxCell>
        <mxCell id="n-UdIjcbDTsLEZm3xPbp-15" value="BS18" style="text;html=1;strokeColor=none;fillColor=none;align=center;verticalAlign=middle;whiteSpace=wrap;rounded=0;container=0;fontSize=14;fontFamily=roboto;fontSource=https%3A%2F%2Ffonts.googleapis.com%2Fcss%3Ffamily%3Droboto;" vertex="1" parent="n-UdIjcbDTsLEZm3xPbp-1">
          <mxGeometry x="185.99999999999977" y="45" width="68.44444444444446" height="34.356846473029044" as="geometry" />
        </mxCell>
        <mxCell id="n-UdIjcbDTsLEZm3xPbp-16" value="kW" style="whiteSpace=wrap;html=1;strokeColor=none;fontSize=10;container=0;fontFamily=roboto;fontSource=https%3A%2F%2Ffonts.googleapis.com%2Fcss%3Ffamily%3Droboto;" vertex="1" parent="n-UdIjcbDTsLEZm3xPbp-1">
          <mxGeometry x="231.62962962962945" y="128.60165975103746" width="22.81481481481482" height="22.904564315352697" as="geometry" />
        </mxCell>
        <mxCell id="n-UdIjcbDTsLEZm3xPbp-17" value="Puis1" style="whiteSpace=wrap;html=1;strokeColor=none;container=0;fontFamily=roboto;fontSource=https%3A%2F%2Ffonts.googleapis.com%2Fcss%3Ffamily%3Droboto;" vertex="1" parent="n-UdIjcbDTsLEZm3xPbp-1">
          <mxGeometry x="185.99999999999977" y="128.60165975103746" width="45.62962962962964" height="22.904564315352697" as="geometry" />
        </mxCell>
        <mxCell id="n-UdIjcbDTsLEZm3xPbp-18" value="" style="shape=mxgraph.pid.shaping_machines.shaping_machine_(horizontal);html=1;pointerEvents=1;align=center;verticalLabelPosition=bottom;verticalAlign=top;dashed=0;gradientColor=#D0D0D0;gradientDirection=west;container=0;rotation=90;fontFamily=roboto;fontSource=https%3A%2F%2Ffonts.googleapis.com%2Fcss%3Ffamily%3Droboto;" vertex="1" parent="n-UdIjcbDTsLEZm3xPbp-1">
          <mxGeometry x="194.55555555555532" y="85.65560165975126" width="51.333333333333336" height="34.356846473029044" as="geometry" />
        </mxCell>
        <mxCell id="n-UdIjcbDTsLEZm3xPbp-19" value="200kw" style="whiteSpace=wrap;html=1;container=0;fontSize=8;fontFamily=roboto;fontSource=https%3A%2F%2Ffonts.googleapis.com%2Fcss%3Ffamily%3Droboto;" vertex="1" parent="n-UdIjcbDTsLEZm3xPbp-1">
          <mxGeometry x="203.11111111111086" y="87.3734439834027" width="34.22222222222223" height="22.904564315352697" as="geometry" />
        </mxCell>
        <mxCell id="n-UdIjcbDTsLEZm3xPbp-20" value="" style="rounded=0;whiteSpace=wrap;html=1;fillColor=none;container=0;fontFamily=roboto;fontSource=https%3A%2F%2Ffonts.googleapis.com%2Fcss%3Ffamily%3Droboto;" vertex="1" parent="n-UdIjcbDTsLEZm3xPbp-1">
          <mxGeometry x="268.9999999999998" y="127.60165975103746" width="68.44444444444446" height="22.904564315352697" as="geometry" />
        </mxCell>
        <mxCell id="n-UdIjcbDTsLEZm3xPbp-21" value="" style="whiteSpace=wrap;html=1;fillColor=none;container=0;fontFamily=roboto;fontSource=https%3A%2F%2Ffonts.googleapis.com%2Fcss%3Ffamily%3Droboto;rounded=1;" vertex="1" parent="n-UdIjcbDTsLEZm3xPbp-1">
          <mxGeometry x="268.9999999999998" y="50.56431535269712" width="68.44444444444446" height="114.52282157676349" as="geometry" />
        </mxCell>
        <mxCell id="n-UdIjcbDTsLEZm3xPbp-22" value="BS20" style="text;html=1;strokeColor=none;fillColor=none;align=center;verticalAlign=middle;whiteSpace=wrap;rounded=0;container=0;fontSize=14;fontFamily=roboto;fontSource=https%3A%2F%2Ffonts.googleapis.com%2Fcss%3Ffamily%3Droboto;" vertex="1" parent="n-UdIjcbDTsLEZm3xPbp-1">
          <mxGeometry x="269" y="50" width="68.44" height="28.36" as="geometry" />
        </mxCell>
        <mxCell id="n-UdIjcbDTsLEZm3xPbp-23" value="kW" style="whiteSpace=wrap;html=1;strokeColor=none;fontSize=10;container=0;fontFamily=roboto;fontSource=https%3A%2F%2Ffonts.googleapis.com%2Fcss%3Ffamily%3Droboto;" vertex="1" parent="n-UdIjcbDTsLEZm3xPbp-1">
          <mxGeometry x="314.62962962962945" y="127.60165975103746" width="22.81481481481482" height="22.904564315352697" as="geometry" />
        </mxCell>
        <mxCell id="n-UdIjcbDTsLEZm3xPbp-24" value="Puis20" style="whiteSpace=wrap;html=1;strokeColor=none;container=0;fontFamily=roboto;fontSource=https%3A%2F%2Ffonts.googleapis.com%2Fcss%3Ffamily%3Droboto;" vertex="1" parent="n-UdIjcbDTsLEZm3xPbp-1">
          <mxGeometry x="268.9999999999998" y="127.60165975103746" width="45.62962962962964" height="22.904564315352697" as="geometry" />
        </mxCell>
        <mxCell id="n-UdIjcbDTsLEZm3xPbp-25" value="" style="shape=mxgraph.pid.shaping_machines.shaping_machine_(horizontal);html=1;pointerEvents=1;align=center;verticalLabelPosition=bottom;verticalAlign=top;dashed=0;gradientColor=#D0D0D0;gradientDirection=west;container=0;rotation=90;fontFamily=roboto;fontSource=https%3A%2F%2Ffonts.googleapis.com%2Fcss%3Ffamily%3Droboto;" vertex="1" parent="n-UdIjcbDTsLEZm3xPbp-1">
          <mxGeometry x="277.5555555555553" y="84.65560165975126" width="51.333333333333336" height="34.356846473029044" as="geometry" />
        </mxCell>
        <mxCell id="n-UdIjcbDTsLEZm3xPbp-26" value="200kw" style="whiteSpace=wrap;html=1;container=0;fontSize=8;fontFamily=roboto;fontSource=https%3A%2F%2Ffonts.googleapis.com%2Fcss%3Ffamily%3Droboto;" vertex="1" parent="n-UdIjcbDTsLEZm3xPbp-1">
          <mxGeometry x="286.11111111111086" y="86.3734439834027" width="34.22222222222223" height="22.904564315352697" as="geometry" />
        </mxCell>
        <mxCell id="n-UdIjcbDTsLEZm3xPbp-27" value="Carbital 2 FL1" style="text;html=1;strokeColor=#666666;fillColor=#f5f5f5;align=center;verticalAlign=middle;whiteSpace=wrap;rounded=1;fontSize=24;container=0;fontStyle=1;fontFamily=roboto;fontSource=https%3A%2F%2Ffonts.googleapis.com%2Fcss%3Ffamily%3Droboto;fontColor=#333333;shadow=1;" vertex="1" parent="n-UdIjcbDTsLEZm3xPbp-1">
          <mxGeometry x="10" y="7" width="180" height="32" as="geometry" />
        </mxCell>
        <mxCell id="n-UdIjcbDTsLEZm3xPbp-28" value="" style="group" vertex="1" connectable="0" parent="1">
          <mxGeometry x="356" y="122.98000000000002" width="80" height="38.17" as="geometry" />
        </mxCell>
        <mxCell id="n-UdIjcbDTsLEZm3xPbp-29" value="" style="whiteSpace=wrap;html=1;container=0;fillColor=none;fontFamily=roboto;fontSource=https%3A%2F%2Ffonts.googleapis.com%2Fcss%3Ffamily%3Droboto;rounded=1;" vertex="1" parent="n-UdIjcbDTsLEZm3xPbp-28">
          <mxGeometry y="3.024317290029611" width="80" height="35.14568270997041" as="geometry" />
        </mxCell>
        <mxCell id="n-UdIjcbDTsLEZm3xPbp-30" value="DébitOut1" style="rounded=0;whiteSpace=wrap;html=1;strokeColor=none;fillColor=none;container=0;fontFamily=roboto;fontSource=https%3A%2F%2Ffonts.googleapis.com%2Fcss%3Ffamily%3Droboto;fontSize=14;" vertex="1" parent="n-UdIjcbDTsLEZm3xPbp-28">
          <mxGeometry y="19.082344724513963" width="80" height="19.087655275486064" as="geometry" />
        </mxCell>
        <mxCell id="n-UdIjcbDTsLEZm3xPbp-31" value="to FL3" style="text;html=1;strokeColor=none;fillColor=none;align=center;verticalAlign=middle;whiteSpace=wrap;rounded=0;container=0;fontFamily=roboto;fontSource=https%3A%2F%2Ffonts.googleapis.com%2Fcss%3Ffamily%3Droboto;" vertex="1" parent="n-UdIjcbDTsLEZm3xPbp-28">
          <mxGeometry x="6.480000000000213" width="67.04761904761905" height="19.084792556602572" as="geometry" />
        </mxCell>
        <mxCell id="n-UdIjcbDTsLEZm3xPbp-32" value="" style="group" vertex="1" connectable="0" parent="1">
          <mxGeometry x="355" y="68.98" width="80" height="38.17" as="geometry" />
        </mxCell>
        <mxCell id="n-UdIjcbDTsLEZm3xPbp-33" value="" style="whiteSpace=wrap;html=1;container=0;fillColor=none;fontFamily=roboto;fontSource=https%3A%2F%2Ffonts.googleapis.com%2Fcss%3Ffamily%3Droboto;rounded=1;" vertex="1" parent="n-UdIjcbDTsLEZm3xPbp-32">
          <mxGeometry y="3.024317290029611" width="80" height="35.14568270997041" as="geometry" />
        </mxCell>
        <mxCell id="n-UdIjcbDTsLEZm3xPbp-34" value="SolFL3" style="rounded=0;whiteSpace=wrap;html=1;strokeColor=none;fillColor=none;container=0;fontFamily=roboto;fontSource=https%3A%2F%2Ffonts.googleapis.com%2Fcss%3Ffamily%3Droboto;fontSize=14;" vertex="1" parent="n-UdIjcbDTsLEZm3xPbp-32">
          <mxGeometry y="19.082344724513963" width="80" height="19.087655275486064" as="geometry" />
        </mxCell>
        <mxCell id="n-UdIjcbDTsLEZm3xPbp-35" value="Solide FL3" style="text;html=1;strokeColor=none;fillColor=none;align=center;verticalAlign=middle;whiteSpace=wrap;rounded=0;container=0;fontFamily=roboto;fontSource=https%3A%2F%2Ffonts.googleapis.com%2Fcss%3Ffamily%3Droboto;" vertex="1" parent="n-UdIjcbDTsLEZm3xPbp-32">
          <mxGeometry x="1.9085714285714284" width="73.52" height="19.087655275486064" as="geometry" />
        </mxCell>
      </root>
    </mxGraphModel>
  </diagram>
</mxfile>
